<svg width="640" height="420" viewBox="0 0 640 420" fill="none" xmlns="http://www.w3.org/2000/svg">
  <rect x="0.5" y="0.5" width="639" height="419" rx="28" fill="url(#paint0_radial)" stroke="rgba(107,153,65,0.35)" />
  <path d="M120 210C120 157.399 162.399 115 215 115H425C477.601 115 520 157.399 520 210C520 262.601 477.601 305 425 305H215C162.399 305 120 262.601 120 210Z" fill="rgba(255,255,255,0.88)" stroke="rgba(107,153,65,0.28)" stroke-width="2"/>
  <g filter="url(#shadow)">
    <circle cx="180" cy="210" r="46" fill="#6B9941" />
    <path d="M180 190L194 205L175 223L166 213L180 190Z" fill="white" fill-opacity="0.9" />
  </g>
  <g filter="url(#shadow)">
    <circle cx="275" cy="210" r="46" fill="#8AB95A" />
    <path d="M275 188C287 188 297 198 297 210C297 222 287 232 275 232C263 232 253 222 253 210C253 198 263 188 275 188Z" stroke="white" stroke-width="6" stroke-linecap="round" stroke-linejoin="round" opacity="0.9" />
  </g>
  <g filter="url(#shadow)">
    <circle cx="365" cy="210" r="46" fill="#EA6E26" />
    <path d="M350 210H380" stroke="white" stroke-width="6" stroke-linecap="round" />
    <path d="M365 195V225" stroke="white" stroke-width="6" stroke-linecap="round" />
  </g>
  <g filter="url(#shadow)">
    <circle cx="455" cy="210" r="46" fill="#f4a264" />
    <path d="M439 210L455 194L471 210L455 226L439 210Z" stroke="white" stroke-width="6" stroke-linecap="round" stroke-linejoin="round" opacity="0.9" />
  </g>
  <path d="M226 210H235" stroke="rgba(107,153,65,0.65)" stroke-width="10" stroke-linecap="round" />
  <path d="M320 210H330" stroke="rgba(107,153,65,0.65)" stroke-width="10" stroke-linecap="round" />
  <path d="M410 210H420" stroke="rgba(234,110,38,0.6)" stroke-width="10" stroke-linecap="round" />
  <defs>
    <radialGradient id="paint0_radial" cx="0" cy="0" r="1" gradientUnits="userSpaceOnUse" gradientTransform="translate(140 90) rotate(25) scale(540 360)">
      <stop offset="0" stop-color="rgba(107,153,65,0.15)" />
      <stop offset="1" stop-color="rgba(234,110,38,0.12)" />
    </radialGradient>
    <filter id="shadow" x="120" y="150" width="370" height="170" filterUnits="userSpaceOnUse" color-interpolation-filters="sRGB">
      <feFlood flood-opacity="0" result="BackgroundImageFix" />
      <feColorMatrix in="SourceAlpha" type="matrix" values="0 0 0 0 0 0 0 0 0 0 0 0 0 0 0 0 0 0 127 0" result="hardAlpha" />
      <feOffset dy="8" />
      <feGaussianBlur stdDeviation="12" />
      <feColorMatrix type="matrix" values="0 0 0 0 0.09 0 0 0 0 0.16 0 0 0 0 0.11 0 0 0 0.2 0" />
      <feBlend mode="normal" in2="BackgroundImageFix" result="effect1_dropShadow" />
      <feBlend mode="normal" in="SourceGraphic" in2="effect1_dropShadow" result="shape" />
    </filter>
  </defs>
</svg>
