<svg width="640" height="420" viewBox="0 0 640 420" fill="none" xmlns="http://www.w3.org/2000/svg">
  <rect width="640" height="420" rx="28" fill="url(#paint0_linear)"/>
  <g opacity="0.9" clip-path="url(#clip0)">
    <path d="M-20 360C60 280 140 320 220 260C300 200 380 220 460 180C540 140 620 160 700 120L700 440L-20 440L-20 360Z" fill="url(#paint1_linear)"/>
    <path d="M80 360C120 320 160 310 200 280C240 250 280 220 320 210C360 200 400 220 440 230C480 240 520 240 560 220C600 200 640 160 680 150L680 420L80 420L80 360Z" fill="url(#paint2_linear)" opacity="0.85"/>
    <path d="M140 380C170 340 210 330 250 310C290 290 330 260 370 250C410 240 450 250 490 260C530 270 570 270 610 250C650 230 690 200 730 190L730 440L140 440L140 380Z" fill="url(#paint3_linear)" opacity="0.7"/>
  </g>
  <g opacity="0.6">
    <circle cx="520" cy="120" r="70" fill="url(#paint4_radial)"/>
    <circle cx="520" cy="120" r="40" fill="url(#paint5_radial)"/>
  </g>
  <defs>
    <linearGradient id="paint0_linear" x1="60" y1="40" x2="560" y2="380" gradientUnits="userSpaceOnUse">
      <stop stop-color="#f4f9f0"/>
      <stop offset="1" stop-color="#e9f3e0"/>
    </linearGradient>
    <linearGradient id="paint1_linear" x1="-20" y1="300" x2="700" y2="420" gradientUnits="userSpaceOnUse">
      <stop stop-color="#6b9941" stop-opacity="0.85"/>
      <stop offset="1" stop-color="#2f5d23" stop-opacity="0.9"/>
    </linearGradient>
    <linearGradient id="paint2_linear" x1="80" y1="300" x2="680" y2="390" gradientUnits="userSpaceOnUse">
      <stop stop-color="#7fb355" stop-opacity="0.8"/>
      <stop offset="1" stop-color="#3d6d2b" stop-opacity="0.85"/>
    </linearGradient>
    <linearGradient id="paint3_linear" x1="140" y1="320" x2="730" y2="420" gradientUnits="userSpaceOnUse">
      <stop stop-color="#99c46d" stop-opacity="0.65"/>
      <stop offset="1" stop-color="#4a7f32" stop-opacity="0.7"/>
    </linearGradient>
    <radialGradient id="paint4_radial" cx="0" cy="0" r="1" gradientUnits="userSpaceOnUse" gradientTransform="translate(520 120) rotate(90) scale(70)">
      <stop stop-color="#fbd499" stop-opacity="0.85"/>
      <stop offset="1" stop-color="#f6b15f" stop-opacity="0"/>
    </radialGradient>
    <radialGradient id="paint5_radial" cx="0" cy="0" r="1" gradientUnits="userSpaceOnUse" gradientTransform="translate(520 120) rotate(90) scale(40)">
      <stop stop-color="#ffd59f"/>
      <stop offset="1" stop-color="#f7a548" stop-opacity="0"/>
    </radialGradient>
    <clipPath id="clip0">
      <rect width="720" height="220" transform="translate(-40 200)"/>
    </clipPath>
  </defs>
</svg>
