<svg width="720" height="640" viewBox="0 0 720 640" xmlns="http://www.w3.org/2000/svg" role="img" aria-labelledby="title desc">
  <title id="title">Ecoza product hero placeholder</title>
  <desc id="desc">Abstract illustration with botanical gradient background for Ecoza azadirachtin formulations.</desc>
  <defs>
    <linearGradient id="bg" x1="0%" y1="0%" x2="100%" y2="100%">
      <stop offset="0%" stop-color="#6B9941" />
      <stop offset="50%" stop-color="#4F7A2C" />
      <stop offset="100%" stop-color="#0F3E2D" />
    </linearGradient>
    <linearGradient id="leaf" x1="0%" y1="0%" x2="100%" y2="100%">
      <stop offset="0%" stop-color="#EA6E26" />
      <stop offset="100%" stop-color="#F0A44E" />
    </linearGradient>
    <filter id="shadow" x="-20%" y="-20%" width="140%" height="140%">
      <feDropShadow dx="0" dy="24" stdDeviation="32" flood-color="#0a1f12" flood-opacity="0.35" />
    </filter>
  </defs>
  <rect width="720" height="640" fill="url(#bg)" rx="48" />
  <g filter="url(#shadow)">
    <path d="M564 132c-84 58-132 120-154 180-26 68-18 128-4 170 14 42 34 66 34 66s-84-24-150-96c-60-64-94-162-54-240 48-94 166-124 258-104 36 8 70 28 70 28z" fill="url(#leaf)" opacity="0.9" />
  </g>
  <g fill="#F4F8ED" font-family="'Inter', sans-serif" font-weight="600">
    <text x="64" y="136" font-size="40">Ecoza® Portfolio</text>
    <text x="64" y="188" font-size="20" opacity="0.76">Azadirachtin biocontrol for premium horticulture</text>
    <text x="64" y="248" font-size="24">• 3% Max</text>
    <text x="64" y="292" font-size="24">• 1.2% Ace &amp; Rix</text>
    <text x="64" y="336" font-size="24">• 0.3% Pro</text>
  </g>
</svg>
