<?xml version="1.0" encoding="UTF-8"?>
<svg id="Layer_2" data-name="Layer 2" xmlns="http://www.w3.org/2000/svg" viewBox="0 0 84.45 95.05">
  <defs>
    <style>
      .cls-1 {
        fill: #6b9a40;
      }

      .cls-2 {
        fill: #ed6f25;
      }
    </style>
  </defs>
  <g id="Layer_2-2" data-name="Layer 2">
    <g id="Layer_1-2" data-name="Layer 1-2">
      <g>
        <path class="cls-1" d="M31.71,21S14.18,30.1,0,4.56c0,0,25.94-16.01,35.65,11.97,0,0-6.25-6.29-20.17-8.46,0,0,15.31,6.29,16.23,12.93"/>
        <path class="cls-2" d="M23.21,10.75c13.64,8.18,21.22,26.91,17.58,46.74-3.64,19.83-17.38,34.64-33.04,37.44,18.04,1.65,35.37-14.01,39.46-36.26,4.09-22.25-6.55-43.05-24-47.92"/>
        <path class="cls-2" d="M84.45,33.62c-17.81,2.27-31.54,12.75-32.74,26.46-1.2,13.71,10.51,26.41,27.66,31.73-21.07-2.96-36.66-17.02-35.32-32.4,1.34-15.38,19.13-26.53,40.39-25.8"/>
        <path class="cls-1" d="M65,24.35c0,4.67-3.79,8.46-8.46,8.46s-8.46-3.79-8.46-8.46,3.79-8.46,8.46-8.46,8.46,3.79,8.46,8.46"/>
      </g>
    </g>
  </g>
</svg>