<?xml version="1.0" encoding="UTF-8"?>
<svg id="Layer_2" data-name="Layer 2" xmlns="http://www.w3.org/2000/svg" viewBox="0 0 108 108">
  <defs>
    <style>
      .cls-1 {
        fill: #6b9a40;
      }

      .cls-2 {
        fill: #fff;
      }

      .cls-3 {
        fill: #ed6f25;
      }
    </style>
  </defs>
  <g id="Layer_2-2" data-name="Layer 2">
    <g>
      <circle class="cls-2" cx="54" cy="54" r="54"/>
      <g id="Layer_1-2" data-name="Layer 1-2">
        <g>
          <path class="cls-1" d="M45.58,32.46s-14.82,7.69-26.81-13.9c0,0,21.93-13.54,30.14,10.12,0,0-5.28-5.32-17.05-7.15,0,0,12.95,5.32,13.72,10.93"/>
          <path class="cls-3" d="M38.39,23.79c11.53,6.92,17.94,22.75,14.86,39.52-3.08,16.77-14.7,29.29-27.94,31.66,15.25,1.4,29.91-11.85,33.37-30.66,3.46-18.81-5.54-36.4-20.29-40.52"/>
          <path class="cls-3" d="M90.17,43.13c-15.06,1.92-26.67,10.78-27.68,22.37-1.01,11.59,8.89,22.33,23.39,26.83-17.82-2.5-31-14.39-29.86-27.4,1.13-13,16.18-22.43,34.15-21.82"/>
          <path class="cls-1" d="M73.72,35.29c0,3.95-3.2,7.15-7.15,7.15s-7.15-3.2-7.15-7.15,3.2-7.15,7.15-7.15,7.15,3.2,7.15,7.15"/>
        </g>
      </g>
    </g>
  </g>
</svg>